<svg width="24" height="25" viewBox="0 0 24 25" fill="none" xmlns="http://www.w3.org/2000/svg">
<path d="M2 4.23047V18.2305L6.8 14.6305C7.14582 14.3701 7.56713 14.2297 8 14.2305H16C17.1046 14.2305 18 13.335 18 12.2305V4.23047C18 3.1259 17.1046 2.23047 16 2.23047H4C2.89543 2.23047 2 3.1259 2 4.23047ZM4 14.2305V4.23047H16V12.2305H7.334C6.90107 12.2293 6.47964 12.3698 6.134 12.6305L4 14.2305Z" fill="#773CBD"/>
<path d="M22 22.2305V9.23047C22 8.1259 21.1046 7.23047 20 7.23047V18.2305L17.866 16.6305C17.5204 16.3698 17.0989 16.2293 16.666 16.2305H7C7 17.335 7.89543 18.2305 9 18.2305H16C16.4329 18.2297 16.8542 18.3701 17.2 18.6305L22 22.2305Z" fill="#773CBD"/>
</svg>
