<svg width="108" height="32" viewBox="0 0 108 32" fill="none" xmlns="http://www.w3.org/2000/svg">
<path d="M0 6C0 2.68629 2.68629 0 6 0H102C105.314 0 108 2.68629 108 6V26C108 29.3137 105.314 32 102 32H6C2.68629 32 0 29.3137 0 26V6Z" fill="#D3F887"/>
<path d="M16.602 17.7615L18.014 19.1735L26.48 10.7075L27.894 12.1215L18.014 22.0015L11.65 15.6375L13.064 14.2235L15.189 16.3485L16.602 17.7605V17.7615ZM16.604 14.9335L21.556 9.98047L22.966 11.3905L18.014 16.3435L16.604 14.9335ZM13.777 20.5885L12.364 22.0015L6 15.6375L7.414 14.2235L8.827 15.6365L8.826 15.6375L13.777 20.5885Z" fill="#568000"/>
<path d="M40.3518 21V16.392H45.6798V14.744H40.3518V11.976H45.7917V10.328H38.4798V21H40.3518ZM50.9041 21.192C53.3841 21.192 54.8881 19.352 54.8881 17.128C54.8881 14.92 53.3841 13.08 50.9041 13.08C48.4561 13.08 46.9361 14.92 46.9361 17.128C46.9361 19.352 48.4561 21.192 50.9041 21.192ZM50.9041 19.704C49.4801 19.704 48.6801 18.504 48.6801 17.128C48.6801 15.768 49.4801 14.568 50.9041 14.568C52.3441 14.568 53.1441 15.768 53.1441 17.128C53.1441 18.504 52.3441 19.704 50.9041 19.704ZM58.268 21V10.328H56.588V21H58.268ZM62.1274 21V10.328H60.4474V21H62.1274ZM67.7948 21.192C70.2748 21.192 71.7788 19.352 71.7788 17.128C71.7788 14.92 70.2748 13.08 67.7948 13.08C65.3468 13.08 63.8268 14.92 63.8268 17.128C63.8268 19.352 65.3468 21.192 67.7948 21.192ZM67.7948 19.704C66.3708 19.704 65.5707 18.504 65.5707 17.128C65.5707 15.768 66.3708 14.568 67.7948 14.568C69.2348 14.568 70.0348 15.768 70.0348 17.128C70.0348 18.504 69.2348 19.704 67.7948 19.704ZM81.9746 21L84.3746 13.272H82.6306L80.9986 18.888L79.1586 13.272H77.6866L75.8466 18.888L74.2146 13.272H72.4706L74.8706 21H76.6306L78.4226 15.336L80.2146 21H81.9746ZM89.1091 21.192C90.3411 21.192 91.4771 20.808 92.2451 20.072L91.4771 18.968C90.9331 19.512 90.0371 19.816 89.2851 19.816C87.8291 19.816 86.9491 18.856 86.8211 17.688H92.7891V17.288C92.7891 14.856 91.3011 13.08 88.9811 13.08C86.6931 13.08 85.0611 14.888 85.0611 17.128C85.0611 19.576 86.7891 21.192 89.1091 21.192ZM91.1571 16.504H86.8051C86.8851 15.56 87.5411 14.456 88.9811 14.456C90.5011 14.456 91.1251 15.592 91.1571 16.504ZM101.567 21V10.328H99.8874V14.344C99.2634 13.528 98.3674 13.08 97.4074 13.08C95.4074 13.08 93.9674 14.648 93.9674 17.144C93.9674 19.688 95.4234 21.192 97.4074 21.192C98.3994 21.192 99.2954 20.712 99.8874 19.944V21H101.567ZM97.8874 19.704C96.5594 19.704 95.7114 18.632 95.7114 17.144C95.7114 15.64 96.5594 14.568 97.8874 14.568C98.6874 14.568 99.5034 15.032 99.8874 15.608V18.68C99.5034 19.256 98.6874 19.704 97.8874 19.704Z" fill="#568000"/>
</svg>
