<svg width="24" height="25" viewBox="0 0 24 25" fill="none" xmlns="http://www.w3.org/2000/svg">
<path d="M11.9951 17.2167V14.6797" stroke="#8A8C93" stroke-width="1.5" stroke-linecap="round" stroke-linejoin="round"/>
<path fill-rule="evenodd" clip-rule="evenodd" d="M18.19 5.87109C19.88 5.87109 21.24 7.24109 21.24 8.93109V12.3711C18.78 13.8111 15.53 14.6811 11.99 14.6811C8.45 14.6811 5.21 13.8111 2.75 12.3711V8.92109C2.75 7.23109 4.12 5.87109 5.81 5.87109H18.19Z" stroke="#8A8C93" stroke-width="1.5" stroke-linecap="round" stroke-linejoin="round"/>
<path d="M15.4951 5.86506V5.49906C15.4951 4.27906 14.5051 3.28906 13.2851 3.28906H10.7051C9.48512 3.28906 8.49512 4.27906 8.49512 5.49906V5.86506" stroke="#8A8C93" stroke-width="1.5" stroke-linecap="round" stroke-linejoin="round"/>
<path d="M2.77441 16.0234L2.96341 18.5324C3.09141 20.2234 4.50041 21.5304 6.19541 21.5304H17.7944C19.4894 21.5304 20.8984 20.2234 21.0264 18.5324L21.2154 16.0234" stroke="#8A8C93" stroke-width="1.5" stroke-linecap="round" stroke-linejoin="round"/>
</svg>
