<svg width="24" height="25" viewBox="0 0 24 25" fill="none" xmlns="http://www.w3.org/2000/svg">
<path d="M14 14.4825V16.5725C13.0949 16.2525 12.1263 16.1543 11.1754 16.2863C10.2245 16.4182 9.3192 16.7764 8.53543 17.3307C7.75166 17.885 7.11234 18.6193 6.67116 19.4719C6.22998 20.3245 5.99982 21.2705 6 22.2305L4 22.2295C3.99969 21.0084 4.27892 19.8034 4.8163 18.7069C5.35368 17.6103 6.13494 16.6514 7.10022 15.9035C8.0655 15.1556 9.18918 14.6386 10.3852 14.3921C11.5811 14.1456 12.8177 14.1762 14 14.4815V14.4825ZM12 13.2305C8.685 13.2305 6 10.5455 6 7.23047C6 3.91547 8.685 1.23047 12 1.23047C15.315 1.23047 18 3.91547 18 7.23047C18 10.5455 15.315 13.2305 12 13.2305ZM12 11.2305C14.21 11.2305 16 9.44047 16 7.23047C16 5.02047 14.21 3.23047 12 3.23047C9.79 3.23047 8 5.02047 8 7.23047C8 9.44047 9.79 11.2305 12 11.2305ZM17.793 20.1445L21.328 16.6095L22.743 18.0235L17.793 22.9735L14.257 19.4375L15.672 18.0235L17.792 20.1445H17.793Z" fill="#151E29"/>
</svg>
