<svg width="14" height="16" viewBox="0 0 14 16" fill="none" xmlns="http://www.w3.org/2000/svg">
<path d="M11.6536 4.97656V14.3099C11.6536 14.4867 11.5834 14.6563 11.4584 14.7813C11.3334 14.9063 11.1638 14.9766 10.987 14.9766H2.98698C2.81017 14.9766 2.6406 14.9063 2.51557 14.7813C2.39055 14.6563 2.32031 14.4867 2.32031 14.3099V4.97656" stroke="#696F77" stroke-width="1.5" stroke-linejoin="round"/>
<path d="M9.98047 3.30273L9.40297 1.75607C9.35265 1.62366 9.2568 1.50865 9.12894 1.4273C9.00109 1.34595 8.8477 1.30238 8.69047 1.30274H5.27047C5.11324 1.30238 4.95985 1.34595 4.832 1.4273C4.70414 1.50865 4.60828 1.62366 4.55797 1.75607L3.98047 3.30273" stroke="#696F77" stroke-width="1.5" stroke-linejoin="round"/>
<path d="M0.320312 3.64258H13.6536" stroke="#696F77" stroke-width="1.5" stroke-linejoin="round"/>
</svg>
