<svg width="23" height="27" viewBox="0 0 23 27" fill="none" xmlns="http://www.w3.org/2000/svg">
<path opacity="0.4" fill-rule="evenodd" clip-rule="evenodd" d="M13.5493 0.0703125V4.20446C13.5493 7.14983 16.0091 9.57325 18.9953 9.57325C19.9649 9.58422 21.1288 9.59096 22.333 9.59418V22.0703C22.333 24.2795 20.5421 26.0703 18.333 26.0703H4.02783C1.81869 26.0703 0.027832 24.2795 0.027832 22.0703V4.07031C0.027832 1.86117 1.81869 0.0703125 4.02783 0.0703125H13.5493Z" fill="#B1BBD2"/>
<path opacity="0.4" d="M16.4453 0.665347C16.0466 0.250681 15.3506 0.536014 15.3506 1.11068V4.62668C15.3506 6.10135 16.5653 7.31468 18.0399 7.31468C18.9693 7.32535 20.2599 7.32801 21.3559 7.32535C21.9173 7.32401 22.2026 6.65335 21.8133 6.24801C20.4066 4.78535 17.8879 2.16401 16.4453 0.665347Z" fill="#B1BBD2"/>
<path fill-rule="evenodd" clip-rule="evenodd" d="M6.96514 12.4228H11.4785C12.0265 12.4228 12.4718 11.9788 12.4718 11.4308C12.4718 10.8828 12.0265 10.4375 11.4785 10.4375H6.96514C6.41714 10.4375 5.97314 10.8828 5.97314 11.4308C5.97314 11.9788 6.41714 12.4228 6.96514 12.4228ZM6.96528 19.0818H14.2239C14.7719 19.0818 15.2173 18.6378 15.2173 18.0898C15.2173 17.5418 14.7719 17.0964 14.2239 17.0964H6.96528C6.41728 17.0964 5.97328 17.5418 5.97328 18.0898C5.97328 18.6378 6.41728 19.0818 6.96528 19.0818Z" fill="#B1BBD2"/>
</svg>
