<svg width="49" height="49" viewBox="0 0 49 49" fill="none" xmlns="http://www.w3.org/2000/svg">
<circle cx="24.9805" cy="24.3047" r="24" fill="#CABED9" fill-opacity="0.14"/>
<path d="M24.9986 28.5492C22.5918 28.5492 20.645 26.6742 20.645 24.3192C20.645 21.9642 22.5918 20.0742 24.9986 20.0742C27.4053 20.0742 29.3061 21.9642 29.3061 24.3192C29.3061 26.6742 27.4053 28.5492 24.9986 28.5492Z" fill="#773CBD"/>
<path opacity="0.4" d="M38.8257 27.8597C38.5344 27.4097 38.1205 26.9597 37.584 26.6747C37.1548 26.4647 36.8788 26.1197 36.6336 25.7147C35.8518 24.4247 36.3116 22.7297 37.6146 21.9647C39.1476 21.1097 39.6381 19.2047 38.749 17.7197L37.7219 15.9497C36.8482 14.4647 34.932 13.9397 33.4144 14.8097C32.0654 15.5297 30.3332 15.0497 29.5514 13.7747C29.3061 13.3547 29.1682 12.9047 29.1988 12.4547C29.2448 11.8697 29.0609 11.3147 28.7849 10.8647C28.2177 9.93469 27.1907 9.30469 26.0563 9.30469H23.8949C22.7758 9.33469 21.7488 9.93469 21.1816 10.8647C20.8903 11.3147 20.7217 11.8697 20.7523 12.4547C20.783 12.9047 20.645 13.3547 20.3998 13.7747C19.618 15.0497 17.8858 15.5297 16.5521 14.8097C15.0192 13.9397 13.1183 14.4647 12.2292 15.9497L11.2022 17.7197C10.3284 19.2047 10.8189 21.1097 12.3365 21.9647C13.6395 22.7297 14.0994 24.4247 13.3329 25.7147C13.0723 26.1197 12.7964 26.4647 12.3672 26.6747C11.846 26.9597 11.3861 27.4097 11.1408 27.8597C10.5737 28.7897 10.6043 29.9597 11.1715 30.9347L12.2292 32.7347C12.7964 33.6947 13.8541 34.2947 14.9578 34.2947C15.479 34.2947 16.0922 34.1447 16.5828 33.8447C16.966 33.5897 17.4259 33.4997 17.9317 33.4997C19.4494 33.4997 20.7217 34.7447 20.7523 36.2297C20.7523 37.9547 22.1626 39.3047 23.9409 39.3047H26.0256C27.7885 39.3047 29.1988 37.9547 29.1988 36.2297C29.2448 34.7447 30.5172 33.4997 32.0348 33.4997C32.5253 33.4997 32.9852 33.5897 33.3837 33.8447C33.8743 34.1447 34.4721 34.2947 35.0087 34.2947C36.097 34.2947 37.1548 33.6947 37.7219 32.7347L38.795 30.9347C39.3469 29.9297 39.3928 28.7897 38.8257 27.8597Z" fill="#773CBD"/>
</svg>
