<svg width="40" height="40" viewBox="0 0 40 40" fill="none" xmlns="http://www.w3.org/2000/svg">
<path opacity="0.4" d="M28.1407 8.52344H23.2356C22.0136 8.53152 20.8535 7.98795 20.0791 7.04454L18.4638 4.8114C17.7024 3.85972 16.5423 3.31361 15.3222 3.33251H11.8545C5.63048 3.33251 3.33351 6.98539 3.33351 13.1968V19.911C3.32577 20.6493 36.6596 20.6484 36.6617 19.911V17.9588C36.6913 11.7474 34.4537 8.52344 28.1407 8.52344Z" fill="#EC61D6"/>
<path fill-rule="evenodd" clip-rule="evenodd" d="M34.7204 10.903C35.2536 11.5265 35.6657 12.2437 35.9356 13.0179C36.4665 14.609 36.7123 16.2811 36.6617 17.9574V26.7125C36.6596 27.4499 36.6051 28.1863 36.4987 28.916C36.2961 30.2039 35.843 31.4398 35.165 32.5541C34.8533 33.0924 34.4749 33.5893 34.0387 34.033C32.064 35.8454 29.4418 36.7887 26.7625 36.6507H13.2178C10.5343 36.7877 7.90785 35.8448 5.92684 34.033C5.49583 33.5884 5.12244 33.0915 4.81541 32.5541C4.14141 31.4406 3.69798 30.2035 3.51133 28.916C3.39264 28.1875 3.33317 27.4506 3.3335 26.7125V17.9574C3.33321 17.2262 3.37278 16.4955 3.45205 15.7686C3.46872 15.6411 3.49372 15.5156 3.51846 15.3915C3.55971 15.1845 3.60024 14.9811 3.60024 14.7778C3.75067 13.9005 4.02509 13.0491 4.41529 12.2488C5.57118 9.77908 7.94224 8.52202 11.8249 8.52202H28.1259C30.3005 8.35383 32.459 9.00849 34.1721 10.3559C34.3694 10.5231 34.5527 10.7061 34.7204 10.903ZM11.6174 25.8991H28.3926H28.4223C28.7903 25.9151 29.1495 25.7833 29.4196 25.5332C29.6897 25.2832 29.8482 24.9356 29.8597 24.5681C29.8805 24.245 29.7742 23.9267 29.5633 23.6807C29.3208 23.3502 28.9365 23.153 28.526 23.1483H11.6174C10.8562 23.1483 10.2392 23.7641 10.2392 24.5237C10.2392 25.2833 10.8562 25.8991 11.6174 25.8991Z" fill="#EC61D6"/>
</svg>
