<svg width="26" height="26" viewBox="0 0 26 26" fill="none" xmlns="http://www.w3.org/2000/svg">
<path d="M23.6156 0.5H19.5515V6.38906H25.4984V2.16056C25.5 2.16056 25.2045 0.660596 23.6156 0.5Z" fill="#1967D2"/>
<path d="M19.5532 25.4711V25.4856V25.4984L25.5001 19.6094H25.4468L19.5532 25.4711Z" fill="#1967D2"/>
<path d="M25.4996 19.6114V19.5586L25.4468 19.6114H25.4996Z" fill="#FBBC05"/>
<path d="M25.5001 6.39062H19.5532V19.5595H25.5001V6.39062Z" fill="#FBBC05"/>
<path d="M25.4468 19.6094H19.5532V25.4711L25.4468 19.6094Z" fill="#EA4335"/>
<path d="M19.5532 19.6114H25.4468L25.5001 19.5586H19.5532V19.6114Z" fill="#EA4335"/>
<path d="M19.5386 25.4829H19.5528V25.4688L19.5386 25.4829Z" fill="#34A853"/>
<path d="M6.31274 19.5586V25.4878H19.5385L19.5531 19.5586H6.31274Z" fill="#34A853"/>
<path d="M19.553 19.6116V19.5586L19.5386 25.4878L19.553 25.4733V19.6116Z" fill="#34A853"/>
<path d="M0.5 19.5586V23.6811C0.553284 25.0189 2.00003 25.4878 2.00003 25.4878H6.31283V19.5586H0.5Z" fill="#188038"/>
<path d="M6.31283 6.38906H19.5532V0.5H2.16796C2.16796 0.5 0.606569 0.660596 0.5 2.31955V19.5579H6.31283V6.38906Z" fill="#4285F4"/>
<path d="M11.5267 18.0854C11.2086 18.0854 10.9019 18.044 10.6066 17.9611C10.3188 17.8783 10.0538 17.754 9.81142 17.5883C9.56909 17.4151 9.35326 17.2004 9.16394 16.9443C8.9822 16.6882 8.8421 16.3907 8.74365 16.0518L10.1408 15.4982C10.2393 15.8748 10.4059 16.161 10.6406 16.3568C10.8754 16.5451 11.1707 16.6393 11.5267 16.6393C11.6857 16.6393 11.8371 16.6167 11.981 16.5715C12.1249 16.5188 12.2499 16.4472 12.3559 16.3568C12.4619 16.2664 12.5452 16.161 12.6058 16.0405C12.6739 15.9124 12.708 15.7693 12.708 15.6112C12.708 15.2798 12.5831 15.0199 12.3332 14.8316C12.0908 14.6433 11.7538 14.5492 11.3222 14.5492H10.652V13.2047H11.2654C11.4169 13.2047 11.5645 13.1859 11.7084 13.1482C11.8523 13.1106 11.9772 13.0541 12.0833 12.9787C12.1969 12.8959 12.2839 12.7942 12.3445 12.6737C12.4127 12.5457 12.4468 12.3988 12.4468 12.2331C12.4468 11.977 12.3559 11.7699 12.1741 11.6117C11.9924 11.446 11.7463 11.3631 11.4358 11.3631C11.1026 11.3631 10.8451 11.4535 10.6634 11.6343C10.4892 11.8075 10.368 12.0034 10.2999 12.2218L8.93676 11.6682C9.00491 11.4799 9.10715 11.2878 9.24346 11.092C9.37977 10.8886 9.55016 10.7079 9.75462 10.5497C9.96666 10.384 10.2128 10.2522 10.493 10.1543C10.7732 10.0488 11.095 9.99609 11.4585 9.99609C11.8296 9.99609 12.1666 10.0488 12.4695 10.1543C12.78 10.2597 13.045 10.4066 13.2646 10.5949C13.4842 10.7757 13.6546 10.9941 13.7758 11.2502C13.897 11.4987 13.9575 11.7699 13.9575 12.0636C13.9575 12.2896 13.9272 12.4929 13.8667 12.6737C13.8137 12.8545 13.7417 13.0164 13.6508 13.1595C13.56 13.3026 13.4539 13.4269 13.3328 13.5323C13.2192 13.6303 13.1018 13.7093 12.9806 13.7696V13.86C13.3441 14.0031 13.6433 14.2328 13.878 14.5492C14.1204 14.8655 14.2415 15.2647 14.2415 15.7467C14.2415 16.0857 14.1772 16.3983 14.0484 16.6845C13.9197 16.9632 13.7341 17.2079 13.4918 17.4188C13.2571 17.6297 12.9731 17.7917 12.6399 17.9046C12.3067 18.0252 11.9356 18.0854 11.5267 18.0854Z" fill="#4285F4"/>
<path d="M16.9542 17.9046V11.9167L15.5797 12.4929L15.0344 11.2389L17.3177 10.1769H18.4422V17.9046H16.9542Z" fill="#4285F4"/>
</svg>
