<svg width="40" height="40" viewBox="0 0 40 40" fill="none" xmlns="http://www.w3.org/2000/svg">
<rect width="40" height="40" rx="7.875" fill="white"/>
<path d="M2.5 14.9444C2.5 10.5885 2.5 8.4105 3.34773 6.74674C4.09341 5.28326 5.28326 4.09341 6.74674 3.34773C8.4105 2.5 10.5885 2.5 14.9444 2.5H25.0556C29.4115 2.5 31.5895 2.5 33.2533 3.34773C34.7167 4.09341 35.9066 5.28326 36.6523 6.74674C37.5 8.4105 37.5 10.5885 37.5 14.9444V25.0556C37.5 29.4115 37.5 31.5895 36.6523 33.2533C35.9066 34.7167 34.7167 35.9066 33.2533 36.6523C31.5895 37.5 29.4115 37.5 25.0556 37.5H14.9444C10.5885 37.5 8.4105 37.5 6.74674 36.6523C5.28326 35.9066 4.09341 34.7167 3.34773 33.2533C2.5 31.5895 2.5 29.4115 2.5 25.0556V14.9444Z" fill="white"/>
<path d="M27.5642 10.6562L20.0803 16.4968L12.4253 10.6562V10.6578L12.4345 10.6657V18.844L19.994 24.8108L27.5642 19.0745V10.6562Z" fill="#EA4335"/>
<path d="M29.5294 9.23298L27.564 10.6537V19.0719L33.7484 14.3237V11.4634C33.7484 11.4634 32.9977 7.37822 29.5294 9.23298Z" fill="#FBBC05"/>
<path d="M27.564 19.0763V29.9949H32.304C32.304 29.9949 33.6528 29.856 33.7499 28.3186V14.3281L27.564 19.0763Z" fill="#34A853"/>
<path d="M12.4349 29.9985V18.8399L12.4253 18.832L12.4349 29.9985Z" fill="#C5221F"/>
<path d="M12.4252 10.6537L10.4706 9.24094C7.00224 7.38617 6.25 11.4698 6.25 11.4698V14.3301L12.4252 18.832V10.6537Z" fill="#C5221F"/>
<path d="M12.4253 10.6562V18.8346L12.4349 18.8425V10.6641L12.4253 10.6562Z" fill="#C5221F"/>
<path d="M6.25 14.332V28.3225C6.34557 29.8615 7.69591 29.9988 7.69591 29.9988H12.436L12.4252 18.8324L6.25 14.332Z" fill="#4285F4"/>
</svg>
