<svg width="143" height="36" viewBox="0 0 143 36" fill="none" xmlns="http://www.w3.org/2000/svg">
<path d="M0 6C0 2.68629 2.68629 0 6 0H137C140.314 0 143 2.68629 143 6V30C143 33.3137 140.314 36 137 36H6C2.68629 36 0 33.3137 0 30V6Z" fill="#92D509"/>
<path d="M47.6544 23.192C49.8144 23.192 51.1264 22.072 51.9424 20.792L50.3424 19.976C49.8304 20.872 48.8064 21.528 47.6544 21.528C45.5424 21.528 43.9744 19.912 43.9744 17.672C43.9744 15.432 45.5424 13.816 47.6544 13.816C48.8064 13.816 49.8304 14.488 50.3424 15.368L51.9424 14.552C51.1424 13.272 49.8144 12.152 47.6544 12.152C44.5024 12.152 42.0544 14.392 42.0544 17.672C42.0544 20.952 44.5024 23.192 47.6544 23.192ZM56.8807 23.192C59.3607 23.192 60.8647 21.352 60.8647 19.128C60.8647 16.92 59.3607 15.08 56.8807 15.08C54.4327 15.08 52.9127 16.92 52.9127 19.128C52.9127 21.352 54.4327 23.192 56.8807 23.192ZM56.8807 21.704C55.4567 21.704 54.6567 20.504 54.6567 19.128C54.6567 17.768 55.4567 16.568 56.8807 16.568C58.3207 16.568 59.1207 17.768 59.1207 19.128C59.1207 20.504 58.3207 21.704 56.8807 21.704ZM69.4606 23V17.56C69.4606 15.976 68.6286 15.08 66.9646 15.08C65.7486 15.08 64.7566 15.72 64.2446 16.328V15.272H62.5646V23H64.2446V17.608C64.6286 17.08 65.3646 16.568 66.2286 16.568C67.1726 16.568 67.7806 16.968 67.7806 18.168V23H69.4606ZM78.5387 23V17.56C78.5387 15.976 77.7067 15.08 76.0427 15.08C74.8267 15.08 73.8347 15.72 73.3227 16.328V15.272H71.6427V23H73.3227V17.608C73.7067 17.08 74.4427 16.568 75.3067 16.568C76.2507 16.568 76.8587 16.968 76.8587 18.168V23H78.5387ZM84.2888 23.192C85.5208 23.192 86.6568 22.808 87.4248 22.072L86.6568 20.968C86.1128 21.512 85.2168 21.816 84.4648 21.816C83.0088 21.816 82.1288 20.856 82.0008 19.688H87.9688V19.288C87.9688 16.856 86.4808 15.08 84.1608 15.08C81.8728 15.08 80.2408 16.888 80.2408 19.128C80.2408 21.576 81.9688 23.192 84.2888 23.192ZM86.3368 18.504H81.9848C82.0648 17.56 82.7208 16.456 84.1608 16.456C85.6808 16.456 86.3048 17.592 86.3368 18.504ZM93.1471 23.192C94.6511 23.192 95.5631 22.552 96.1071 21.816L95.0031 20.792C94.5711 21.384 93.9791 21.704 93.2271 21.704C91.8191 21.704 90.8911 20.632 90.8911 19.128C90.8911 17.624 91.8191 16.568 93.2271 16.568C93.9791 16.568 94.5711 16.872 95.0031 17.48L96.1071 16.456C95.5631 15.72 94.6511 15.08 93.1471 15.08C90.7951 15.08 89.1471 16.792 89.1471 19.128C89.1471 21.48 90.7951 23.192 93.1471 23.192ZM99.9002 23.192C100.684 23.192 101.18 22.984 101.484 22.696L101.084 21.432C100.956 21.576 100.652 21.704 100.332 21.704C99.8522 21.704 99.5962 21.32 99.5962 20.792V16.744H101.164V15.272H99.5962V13.16H97.9162V15.272H96.6362V16.744H97.9162V21.208C97.9162 22.488 98.6042 23.192 99.9002 23.192Z" fill="white"/>
<path d="M6 1H137V-1H6V1ZM142 6V30H144V6H142ZM137 35H6V37H137V35ZM1 30V6H-1V30H1ZM6 35C3.23858 35 1 32.7614 1 30H-1C-1 33.866 2.13401 37 6 37V35ZM142 30C142 32.7614 139.761 35 137 35V37C140.866 37 144 33.866 144 30H142ZM137 1C139.761 1 142 3.23858 142 6H144C144 2.13401 140.866 -1 137 -1V1ZM6 -1C2.13401 -1 -1 2.13401 -1 6H1C1 3.23858 3.23858 1 6 1V-1Z" fill="#92D509"/>
</svg>
