<svg width="216" height="25" viewBox="0 0 216 25" fill="none" xmlns="http://www.w3.org/2000/svg">
<path d="M9.5 12.2305L14.5 17.2305V7.23047L9.5 12.2305Z" fill="#BFC1C5"/>
<path d="M45.9049 17.2305V6.55847H44.2729L41.2009 9.66247L42.2889 10.7985L44.0329 8.99047V17.2305H45.9049Z" fill="#773CBD"/>
<path d="M79.7702 17.2305V15.5825H75.0342C77.8982 13.4225 79.7062 11.6625 79.7062 9.69447C79.7062 7.56647 77.8982 6.39847 75.8342 6.39847C74.3462 6.39847 72.8422 6.97447 71.8982 8.11047L72.9862 9.34247C73.6582 8.57447 74.6182 8.06247 75.8662 8.06247C76.8422 8.06247 77.8022 8.57447 77.8022 9.69447C77.8022 11.2305 76.1862 12.6225 72.0422 15.7585V17.2305H79.7702Z" fill="#BFC1C5"/>
<path d="M107.822 17.4225C110.286 17.4225 111.838 16.1265 111.838 14.3185C111.838 12.6705 110.398 11.8225 109.358 11.7265C110.462 11.5345 111.678 10.7025 111.678 9.27847C111.678 7.48647 110.126 6.39847 107.822 6.39847C106.046 6.39847 104.75 7.11847 103.934 8.07847L104.894 9.24647C105.662 8.47847 106.558 8.06247 107.646 8.06247C108.846 8.06247 109.806 8.57447 109.806 9.56647C109.806 10.5425 108.862 10.9745 107.614 10.9745C107.198 10.9745 106.574 10.9745 106.382 10.9585V12.6385C106.542 12.6225 107.166 12.6225 107.614 12.6225C109.134 12.6225 109.982 13.0705 109.982 14.1265C109.982 15.1185 109.166 15.7585 107.758 15.7585C106.622 15.7585 105.486 15.2625 104.798 14.4625L103.79 15.6945C104.51 16.6545 105.918 17.4225 107.822 17.4225Z" fill="#BFC1C5"/>
<path d="M142.767 17.2305V14.8145H144.191V13.1665H142.767V6.55847H140.191L135.807 13.3105V14.8145H140.895V17.2305H142.767ZM140.895 13.1665H137.647L140.895 8.23847V13.1665Z" fill="#BFC1C5"/>
<path d="M172.067 17.4225C174.451 17.4225 176.131 16.0305 176.131 13.8065C176.131 11.6305 174.515 10.3665 172.723 10.3665C171.699 10.3665 170.819 10.7825 170.307 11.2945V8.20647H175.427V6.55847H168.435V12.5265L169.763 12.9105C170.435 12.2705 171.187 11.9825 172.099 11.9825C173.411 11.9825 174.243 12.7345 174.243 13.8865C174.243 14.9265 173.395 15.7585 172.051 15.7585C170.851 15.7585 169.891 15.3105 169.171 14.4945L168.099 15.7745C168.963 16.7985 170.227 17.4225 172.067 17.4225Z" fill="#BFC1C5"/>
<path d="M206.5 12.2305L201.5 7.23047V17.2305L206.5 12.2305Z" fill="#773CBD"/>
</svg>
