<svg width="16" height="16" viewBox="0 0 16 16" fill="none" xmlns="http://www.w3.org/2000/svg">
<path d="M2 14V3.33333C2 2.59695 2.59695 2 3.33333 2H12.6667C13.403 2 14 2.59695 14 3.33333V10C14 10.7364 13.403 11.3333 12.6667 11.3333H6C5.71142 11.3328 5.43054 11.4264 5.2 11.6L2 14ZM3.33333 3.33333V11.3333L4.756 10.2667C4.98643 10.0929 5.26738 9.99922 5.556 10H12.6667V3.33333H3.33333Z" fill="#696F77"/>
<rect x="7.2998" y="8" width="1.5" height="1.5" rx="0.75" fill="#696F77"/>
<path d="M7.4911 7.54505H8.61838L8.90929 4H7.2002L7.4911 7.54505Z" fill="#696F77"/>
</svg>
