<svg width="16" height="16" viewBox="0 0 16 16" fill="none" xmlns="http://www.w3.org/2000/svg">
<path d="M11.7572 13.9999C11.076 14.0073 10.4303 13.7116 10.0121 13.2006C9.59399 12.6895 9.45159 12.0221 9.62728 11.3967L5.68596 9.25653C5.00491 9.84931 4.0066 9.97478 3.18674 9.57062C2.36687 9.16646 1.90007 8.31876 2.01812 7.44844C2.13616 6.57811 2.81391 5.87054 3.71484 5.67704C4.61577 5.48354 5.54799 5.84534 6.04861 6.58279L9.62665 4.6394C9.58036 4.47323 9.55583 4.30226 9.55362 4.13038C9.5446 3.1295 10.2763 2.26004 11.3059 2.04811C12.3356 1.83617 13.3804 2.33996 13.8083 3.25463C14.2361 4.16931 13.9294 5.24367 13.0737 5.82763C12.2181 6.4116 11.0485 6.34478 10.2726 5.66762L6.39993 7.77012C6.3961 7.92524 6.37328 8.0794 6.33193 8.2295L10.2726 10.3691C10.9981 9.73657 12.0776 9.63893 12.9156 10.13C13.7537 10.6211 14.1464 11.5814 13.877 12.4812C13.6077 13.381 12.7419 14.0012 11.7572 13.9999ZM11.7572 11.0091C11.2357 11.0091 10.8128 11.4108 10.8128 11.9063C10.8128 12.4019 11.2357 12.8036 11.7572 12.8036C12.2788 12.8036 12.7016 12.4019 12.7016 11.9063C12.7016 11.4108 12.2788 11.0091 11.7572 11.0091ZM4.20198 6.82205C3.6804 6.82205 3.25758 7.22376 3.25758 7.71928C3.25758 8.2148 3.6804 8.61651 4.20198 8.61651C4.72356 8.61651 5.14639 8.2148 5.14639 7.71928C5.14639 7.22376 4.72356 6.82205 4.20198 6.82205ZM11.7572 3.23315C11.2357 3.23315 10.8128 3.63485 10.8128 4.13038C10.8128 4.6259 11.2357 5.0276 11.7572 5.0276C12.2788 5.0276 12.7016 4.6259 12.7016 4.13038C12.7016 3.63485 12.2788 3.23315 11.7572 3.23315Z" fill="#696F77"/>
</svg>
