<svg width="25" height="25" viewBox="0 0 25 25" fill="none" xmlns="http://www.w3.org/2000/svg">
<path d="M22.5962 11.538C23.9237 11.538 24.9999 10.4619 24.9999 9.13441C24.9999 7.80692 23.9236 6.73077 22.5961 6.73077C21.2685 6.73077 20.1922 7.80701 20.1922 9.13462V11.538H22.5962ZM15.8653 11.538C17.1929 11.538 18.2691 10.4618 18.2691 9.1342V2.40385C18.2691 1.07624 17.1929 0 15.8653 0C14.5377 0 13.4614 1.07624 13.4614 2.40385V9.1342C13.4614 10.4618 14.5377 11.538 15.8653 11.538Z" fill="#2EB67D"/>
<path d="M2.40375 13.462C1.07626 13.462 0.00011158 14.5381 0.00011158 15.8656C0.00011158 17.1931 1.07636 18.2692 2.40385 18.2692C3.73146 18.2692 4.8078 17.193 4.8078 15.8654V13.462H2.40375ZM9.13473 13.462C7.80712 13.462 6.73088 14.5382 6.73088 15.8658V22.5962C6.73088 23.9238 7.80712 25 9.13473 25C10.4623 25 11.5386 23.9238 11.5386 22.5962V15.8658C11.5386 14.5382 10.4623 13.462 9.13473 13.462Z" fill="#E01E5A"/>
<path d="M13.4617 22.5958C13.4617 23.9233 14.5379 24.9994 15.8653 24.9994C17.1928 24.9994 18.269 23.9232 18.269 22.5957C18.269 21.268 17.1927 20.1917 15.8651 20.1917L13.4617 20.1917L13.4617 22.5958ZM13.4617 15.8648C13.4617 17.1924 14.5379 18.2686 15.8656 18.2686L22.5959 18.2686C23.9235 18.2686 24.9998 17.1924 24.9998 15.8648C24.9998 14.5372 23.9235 13.4609 22.5959 13.4609L15.8656 13.4609C14.5379 13.4609 13.4617 14.5372 13.4617 15.8648Z" fill="#ECB22E"/>
<path d="M11.5383 2.40424C11.5383 1.07675 10.4621 0.000601272 9.13466 0.000601214C7.80716 0.000601156 6.73102 1.07685 6.73102 2.40434C6.73102 3.73195 7.80725 4.80829 9.13486 4.80829L11.5383 4.80829L11.5383 2.40424ZM11.5383 9.13522C11.5383 7.80761 10.4621 6.73137 9.13445 6.73137L2.40409 6.73137C1.07648 6.73137 0.000244304 7.80761 0.000244246 9.13522C0.000244188 10.4628 1.07648 11.5391 2.40409 11.5391L9.13445 11.5391C10.4621 11.5391 11.5383 10.4628 11.5383 9.13522Z" fill="#36C5F0"/>
</svg>
