<svg width="5" height="17" viewBox="0 0 5 17" fill="none" xmlns="http://www.w3.org/2000/svg">
<path d="M2.5 4.54688C1.39543 4.54688 0.5 3.65144 0.5 2.54687C0.5 1.44231 1.39543 0.546875 2.5 0.546875C3.60457 0.546875 4.5 1.44231 4.5 2.54688C4.5 3.65144 3.60457 4.54688 2.5 4.54688Z" fill="#6B7280"/>
<path d="M2.5 10.5469C1.39543 10.5469 0.5 9.65144 0.5 8.54688C0.5 7.44231 1.39543 6.54688 2.5 6.54688C3.60457 6.54688 4.5 7.44231 4.5 8.54688C4.5 9.65144 3.60457 10.5469 2.5 10.5469Z" fill="#6B7280"/>
<path d="M2.5 16.5469C1.39543 16.5469 0.5 15.6514 0.5 14.5469C0.5 13.4423 1.39543 12.5469 2.5 12.5469C3.60457 12.5469 4.5 13.4423 4.5 14.5469C4.5 15.6514 3.60457 16.5469 2.5 16.5469Z" fill="#6B7280"/>
</svg>
