<svg width="3" height="15" viewBox="0 0 3 15" fill="none" xmlns="http://www.w3.org/2000/svg">
<path fill-rule="evenodd" clip-rule="evenodd" d="M2.5 1.25C2.5 1.94036 1.94036 2.5 1.25 2.5C0.559644 2.5 0 1.94036 0 1.25C0 0.559644 0.559644 0 1.25 0C1.94036 0 2.5 0.559644 2.5 1.25ZM2.5 7.25C2.5 7.94036 1.94036 8.5 1.25 8.5C0.559644 8.5 0 7.94036 0 7.25C0 6.55964 0.559644 6 1.25 6C1.94036 6 2.5 6.55964 2.5 7.25ZM1.25 14.5C1.94036 14.5 2.5 13.9404 2.5 13.25C2.5 12.5596 1.94036 12 1.25 12C0.559644 12 0 12.5596 0 13.25C0 13.9404 0.559644 14.5 1.25 14.5Z" fill="#151E29"/>
</svg>
