<svg width="40" height="40" viewBox="0 0 40 40" fill="none" xmlns="http://www.w3.org/2000/svg">
<rect width="40" height="40" rx="7.875" fill="white"/>
<g clip-path="url(#clip0_2903_53773)">
<path d="M7.4624 16.0581C7.4624 13.0488 7.4624 11.5442 8.04805 10.3948C8.5632 9.38373 9.3852 8.56173 10.3962 8.04658C11.5456 7.46094 13.0503 7.46094 16.0596 7.46094H23.9403C26.9496 7.46094 28.4542 7.46094 29.6036 8.04658C30.6147 8.56173 31.4367 9.38373 31.9518 10.3948C32.5374 11.5442 32.5374 13.0488 32.5374 16.0581V23.9388C32.5374 26.9481 32.5374 28.4528 31.9518 29.6022C31.4367 30.6132 30.6147 31.4352 29.6036 31.9503C28.4542 32.536 26.9496 32.536 23.9403 32.536H16.0596C13.0503 32.536 11.5456 32.536 10.3962 31.9503C9.3852 31.4352 8.5632 30.6132 8.04805 29.6022C7.4624 28.4528 7.4624 26.9481 7.4624 23.9388V16.0581Z" fill="#4087FC"/>
<path d="M13.4445 15.0703C12.7867 15.0703 12.2534 15.6717 12.2534 16.4136V22.9287C12.2534 24.8205 13.6132 26.3541 15.2906 26.3541L22.3461 26.2869C23.0039 26.2869 23.5372 25.6855 23.5372 24.9436V18.3614C23.5372 16.4696 21.9235 15.0703 20.2461 15.0703L13.4445 15.0703Z" fill="white"/>
<path d="M25.1472 17.6351C24.7216 18.056 24.4775 18.6634 24.4775 19.3018V22.028C24.4775 22.6664 24.7216 23.2738 25.1472 23.6946L27.7957 26.0273C28.3346 26.5601 29.1791 26.1285 29.1791 25.3202V16.1377C29.1791 15.3294 28.3346 14.8978 27.7957 15.4307L25.1472 17.6351Z" fill="white"/>
</g>
<defs>
<clipPath id="clip0_2903_53773">
<rect x="7.4624" y="7.46094" width="25.075" height="25.075" rx="12.5375" fill="white"/>
</clipPath>
</defs>
</svg>
